# xmcd
#
# Track frame offsets: 
#        150
#        18883
#        34725
#        52406
#        67829
#        87800
#        103807
#        118786
#        135389
#        151889
#        166400
#        178944
#        194158
#        213108
#
# Disc length: 3091 seconds
#
# Revision: 0
# Processed by: cddbd v1.5.2PL0 Copyright (c) Steve Scherf et al.
# Submitted via: ExactAudioCopy v0.99pb3
#
DISCID=c10c110e
DTITLE=Jonas Fjeld and Chatham County Line - Brother Of Song
DYEAR=2009
DGENRE=Country
TTITLE0=Paying Back
TTITLE1=Stein Ove
TTITLE2=Brother Of Song
TTITLE3=Fool No More
TTITLE4=Blue In The Morning
TTITLE5=Dark As The Night
TTITLE6=The River
TTITLE7=Ready To Love You
TTITLE8=No Answer
TTITLE9=Valley
TTITLE10=Soaked To The Skin
TTITLE11=Fall River
TTITLE12=The End Of The Line
TTITLE13=De to gamle
EXTD=
EXTT0=
EXTT1=
EXTT2=
EXTT3=
EXTT4=
EXTT5=
EXTT6=
EXTT7=
EXTT8=
EXTT9=
EXTT10=
EXTT11=
EXTT12=
EXTT13=
PLAYORDER=
